<svg xmlns="http://www.w3.org/2000/svg" xmlns:xlink="http://www.w3.org/1999/xlink" contentStyleType="text/css" height="678px" preserveAspectRatio="none" style="width:790px;height:678px;background:#FFFFFF;" version="1.1" viewBox="0 0 790 678" width="790px" zoomAndPan="magnify"><title>SW components of YouTubeDownloader Tool</title><defs/><g><text fill="#000000" font-family="sans-serif" font-size="30" font-weight="bold" lengthAdjust="spacing" textLength="651.6357" x="62.6782" y="41.1426">SW components of YouTubeDownloader Tool</text><!--cluster YtDl--><g id="cluster_YtDl"><path d="M8.5,192.7344 L189.5,192.7344 A3.75,3.75 0 0 1 192,195.2344 L199,221.375 L645.5,221.375 A2.5,2.5 0 0 1 648,223.875 L648,438.2344 A2.5,2.5 0 0 1 645.5,440.7344 L8.5,440.7344 A2.5,2.5 0 0 1 6,438.2344 L6,195.2344 A2.5,2.5 0 0 1 8.5,192.7344 " fill="#EDEDED" style="stroke:#000000;stroke-width:1.5;"/><line style="stroke:#000000;stroke-width:1.5;" x1="6" x2="199" y1="221.375" y2="221.375"/><text fill="#000000" font-family="sans-serif" font-size="18" font-weight="bold" lengthAdjust="spacing" textLength="180" x="10" y="213.4199">YouTubeDownloader</text></g><!--cluster controller--><g id="cluster_controller"><path d="M294.5,311.7344 L381.501,311.7344 A3.75,3.75 0 0 1 384.001,314.2344 L391.001,340.375 L447.5,340.375 A2.5,2.5 0 0 1 450,342.875 L450,414.2344 A2.5,2.5 0 0 1 447.5,416.7344 L294.5,416.7344 A2.5,2.5 0 0 1 292,414.2344 L292,314.2344 A2.5,2.5 0 0 1 294.5,311.7344 " fill="none" style="stroke:#000000;stroke-width:1.5;"/><line style="stroke:#000000;stroke-width:1.5;" x1="292" x2="391.001" y1="340.375" y2="340.375"/><text fill="#000000" font-family="sans-serif" font-size="18" font-weight="bold" lengthAdjust="spacing" textLength="86.001" x="296" y="332.4199">Controller</text></g><!--cluster util--><g id="cluster_util"><path d="M37.5,311.7344 L67.4951,311.7344 A3.75,3.75 0 0 1 69.9951,314.2344 L76.9951,340.375 L212.5,340.375 A2.5,2.5 0 0 1 215,342.875 L215,414.2344 A2.5,2.5 0 0 1 212.5,416.7344 L37.5,416.7344 A2.5,2.5 0 0 1 35,414.2344 L35,314.2344 A2.5,2.5 0 0 1 37.5,311.7344 " fill="none" style="stroke:#000000;stroke-width:1.5;"/><line style="stroke:#000000;stroke-width:1.5;" x1="35" x2="76.9951" y1="340.375" y2="340.375"/><text fill="#000000" font-family="sans-serif" font-size="18" font-weight="bold" lengthAdjust="spacing" textLength="28.9951" x="39" y="332.4199">Util</text></g><!--cluster Worker--><g id="cluster_Worker"><path d="M476.5,311.7344 L539.5156,311.7344 A3.75,3.75 0 0 1 542.0156,314.2344 L549.0156,340.375 L615.5,340.375 A2.5,2.5 0 0 1 618,342.875 L618,414.2344 A2.5,2.5 0 0 1 615.5,416.7344 L476.5,416.7344 A2.5,2.5 0 0 1 474,414.2344 L474,314.2344 A2.5,2.5 0 0 1 476.5,311.7344 " fill="none" style="stroke:#000000;stroke-width:1.5;"/><line style="stroke:#000000;stroke-width:1.5;" x1="474" x2="549.0156" y1="340.375" y2="340.375"/><text fill="#000000" font-family="sans-serif" font-size="18" font-weight="bold" lengthAdjust="spacing" textLength="62.0156" x="478" y="332.4199">Worker</text></g><!--cluster Python Libraries (mostly third party)--><g id="cluster_Python Libraries (mostly third party)"><path d="M455.5,464.7344 L767.5449,464.7344 A3.75,3.75 0 0 1 770.0449,467.2344 L777.0449,493.375 L777.5,493.375 A2.5,2.5 0 0 1 780,495.875 L780,567.2344 A2.5,2.5 0 0 1 777.5,569.7344 L455.5,569.7344 A2.5,2.5 0 0 1 453,567.2344 L453,467.2344 A2.5,2.5 0 0 1 455.5,464.7344 " fill="#90EE90" style="stroke:#000000;stroke-width:1.5;"/><line style="stroke:#000000;stroke-width:1.5;" x1="453" x2="777.0449" y1="493.375" y2="493.375"/><text fill="#000000" font-family="sans-serif" font-size="18" font-weight="bold" lengthAdjust="spacing" textLength="311.0449" x="457" y="485.4199">Python Libraries (mostly third party)</text></g><!--entity youtube_downloader--><g id="elem_youtube_downloader"><rect fill="#63D8FF" height="47.6094" rx="2.5" ry="2.5" style="stroke:#000000;stroke-width:0.5;" width="180.7861" x="450.5" y="239.2344"/><rect fill="#63D8FF" height="10" style="stroke:#000000;stroke-width:0.5;" width="15" x="611.2861" y="244.2344"/><rect fill="#63D8FF" height="2" style="stroke:#000000;stroke-width:0.5;" width="4" x="609.2861" y="246.2344"/><rect fill="#63D8FF" height="2" style="stroke:#000000;stroke-width:0.5;" width="4" x="609.2861" y="250.2344"/><text fill="#000000" font-family="sans-serif" font-size="14" font-weight="bold" lengthAdjust="spacing" textLength="140.7861" x="465.5" y="273.7676">youtube_downloader</text></g><g id="elem_GMN5"><path d="M262.5,241.7344 L262.5,284.4375 A0,0 0 0 0 262.5,284.4375 L415.0234,284.4375 A0,0 0 0 0 415.0234,284.4375 L415.0234,267.2344 L450.33,263.2344 L415.0234,259.2344 L415.0234,251.7344 L405.0234,241.7344 L262.5,241.7344 A0,0 0 0 0 262.5,241.7344 " fill="#FEFFDD" style="stroke:#181818;stroke-width:0.5;"/><path d="M405.0234,241.7344 L405.0234,251.7344 L415.0234,251.7344 L405.0234,241.7344 " fill="#FEFFDD" style="stroke:#181818;stroke-width:0.5;"/><text fill="#000000" font-family="sans-serif" font-size="13" lengthAdjust="spacing" textLength="131.5234" x="268.5" y="260.2295">Application entry point:</text><text fill="#000000" font-family="sans-serif" font-size="13" lengthAdjust="spacing" textLength="85.998" x="268.5" y="276.5811">Init and startup</text></g><g id="elem_GMN12"><path d="M22.5,233.7344 L22.5,292.7891 A0,0 0 0 0 22.5,292.7891 L121,292.7891 L125,352.7344 L129,292.7891 L227.0425,292.7891 A0,0 0 0 0 227.0425,292.7891 L227.0425,243.7344 L217.0425,233.7344 L22.5,233.7344 A0,0 0 0 0 22.5,233.7344 " fill="#FEFFDD" style="stroke:#181818;stroke-width:0.5;"/><path d="M217.0425,233.7344 L217.0425,243.7344 L227.0425,243.7344 L217.0425,233.7344 " fill="#FEFFDD" style="stroke:#181818;stroke-width:0.5;"/><text fill="#000000" font-family="sans-serif" font-size="13" lengthAdjust="spacing" textLength="183.5425" x="28.5" y="252.2295">Constants (e.g paths, keys) and</text><text fill="#000000" font-family="sans-serif" font-size="13" lengthAdjust="spacing" textLength="146.7007" x="28.5" y="268.5811">Functions related to data.</text><text fill="#000000" font-family="sans-serif" font-size="13" lengthAdjust="spacing" textLength="176.3188" x="28.5" y="284.9326">Included by most components.</text></g><!--entity main_window--><g id="elem_main_window"><rect fill="#F1F1F1" height="47.6094" rx="2.5" ry="2.5" style="stroke:#000000;stroke-width:0.5;" width="124.8203" x="308.5" y="352.7344"/><rect fill="#F1F1F1" height="10" style="stroke:#000000;stroke-width:0.5;" width="15" x="413.3203" y="357.7344"/><rect fill="#F1F1F1" height="2" style="stroke:#000000;stroke-width:0.5;" width="4" x="411.3203" y="359.7344"/><rect fill="#F1F1F1" height="2" style="stroke:#000000;stroke-width:0.5;" width="4" x="411.3203" y="363.7344"/><text fill="#000000" font-family="sans-serif" font-size="14" lengthAdjust="spacing" textLength="84.8203" x="323.5" y="387.2676">main_window</text></g><!--entity data--><g id="elem_data"><rect fill="#F1F1F1" height="47.6094" rx="2.5" ry="2.5" style="stroke:#000000;stroke-width:0.5;" width="147.4199" x="51.5" y="352.7344"/><rect fill="#F1F1F1" height="10" style="stroke:#000000;stroke-width:0.5;" width="15" x="178.9199" y="357.7344"/><rect fill="#F1F1F1" height="2" style="stroke:#000000;stroke-width:0.5;" width="4" x="176.9199" y="359.7344"/><rect fill="#F1F1F1" height="2" style="stroke:#000000;stroke-width:0.5;" width="4" x="176.9199" y="363.7344"/><text fill="#000000" font-family="sans-serif" font-size="14" lengthAdjust="spacing" textLength="107.4199" x="66.5" y="387.2676">downloader_data</text></g><!--entity downloader--><g id="elem_downloader"><rect fill="#F1F1F1" height="47.6094" rx="2.5" ry="2.5" style="stroke:#000000;stroke-width:0.5;" width="112.3857" x="490" y="352.7344"/><rect fill="#F1F1F1" height="10" style="stroke:#000000;stroke-width:0.5;" width="15" x="582.3857" y="357.7344"/><rect fill="#F1F1F1" height="2" style="stroke:#000000;stroke-width:0.5;" width="4" x="580.3857" y="359.7344"/><rect fill="#F1F1F1" height="2" style="stroke:#000000;stroke-width:0.5;" width="4" x="580.3857" y="363.7344"/><text fill="#000000" font-family="sans-serif" font-size="14" lengthAdjust="spacing" textLength="72.3857" x="505" y="387.2676">downloader</text></g><!--entity PyInstaller--><g id="elem_PyInstaller"><rect fill="#F1F1F1" height="47.6094" rx="2.5" ry="2.5" style="stroke:#000000;stroke-width:0.5;" width="105.3584" x="622.5" y="505.7344"/><rect fill="#F1F1F1" height="10" style="stroke:#000000;stroke-width:0.5;" width="15" x="707.8584" y="510.7344"/><rect fill="#F1F1F1" height="2" style="stroke:#000000;stroke-width:0.5;" width="4" x="705.8584" y="512.7344"/><rect fill="#F1F1F1" height="2" style="stroke:#000000;stroke-width:0.5;" width="4" x="705.8584" y="516.7344"/><text fill="#000000" font-family="sans-serif" font-size="14" lengthAdjust="spacing" textLength="65.3584" x="637.5" y="540.2676">PyInstaller</text></g><!--entity pytube--><g id="elem_pytube"><rect fill="#F1F1F1" height="47.6094" rx="2.5" ry="2.5" style="stroke:#000000;stroke-width:0.5;" width="82.0342" x="505" y="505.7344"/><rect fill="#F1F1F1" height="10" style="stroke:#000000;stroke-width:0.5;" width="15" x="567.0342" y="510.7344"/><rect fill="#F1F1F1" height="2" style="stroke:#000000;stroke-width:0.5;" width="4" x="565.0342" y="512.7344"/><rect fill="#F1F1F1" height="2" style="stroke:#000000;stroke-width:0.5;" width="4" x="565.0342" y="516.7344"/><text fill="#000000" font-family="sans-serif" font-size="14" lengthAdjust="spacing" textLength="42.0342" x="520" y="540.2676">pytube</text></g><!--entity icon--><g id="elem_icon"><polygon fill="#FFFF00" points="444.5,74.7344,454.5,64.7344,637.8164,64.7344,637.8164,102.3438,627.8164,112.3438,444.5,112.3438,444.5,74.7344" style="stroke:#181818;stroke-width:0.5;"/><line style="stroke:#181818;stroke-width:0.5;" x1="627.8164" x2="637.8164" y1="74.7344" y2="64.7344"/><line style="stroke:#181818;stroke-width:0.5;" x1="444.5" x2="627.8164" y1="74.7344" y2="74.7344"/><line style="stroke:#181818;stroke-width:0.5;" x1="627.8164" x2="627.8164" y1="74.7344" y2="112.3438"/><text fill="#000000" font-family="sans-serif" font-size="14" lengthAdjust="spacing" textLength="153.3164" x="459.5" y="99.2676">YouTubeDownloader.ico</text></g><!--entity YouTubeDownloader.exe--><g id="elem_YouTubeDownloader.exe"><polygon fill="#DDA0DD" points="576,623.7344,586,613.7344,773.9922,613.7344,773.9922,651.3438,763.9922,661.3438,576,661.3438,576,623.7344" style="stroke:#181818;stroke-width:0.5;"/><line style="stroke:#181818;stroke-width:0.5;" x1="763.9922" x2="773.9922" y1="623.7344" y2="613.7344"/><line style="stroke:#181818;stroke-width:0.5;" x1="576" x2="763.9922" y1="623.7344" y2="623.7344"/><line style="stroke:#181818;stroke-width:0.5;" x1="763.9922" x2="763.9922" y1="623.7344" y2="661.3438"/><text fill="#000000" font-family="sans-serif" font-size="14" lengthAdjust="spacing" textLength="157.9922" x="591" y="648.2676">YouTubeDownloader.exe</text></g><!--link youtube_downloader to main_window--><g id="link_youtube_downloader_main_window"><path d="M500.66,287.3344 C491.8,292.6044 482.52,298.2544 474,303.7344 C449.59,319.4244 427.6144,334.7457 407.4544,349.2157 " fill="none" id="youtube_downloader-to-main_window" style="stroke:#181818;stroke-width:1.0;"/><polygon fill="#181818" points="402.58,352.7144,412.224,350.716,406.642,349.7989,407.5592,344.2168,402.58,352.7144" style="stroke:#181818;stroke-width:1.0;"/></g><!--reverse link icon to youtube_downloader--><g id="link_icon_youtube_downloader"><path d="M541,118.9944 C541,152.0144 541,206.1044 541,239.0644 " fill="none" id="icon-backto-youtube_downloader" style="stroke:#000000;stroke-width:1.0;"/><polygon fill="#000000" points="541,112.9944,537,121.9944,541,117.9944,545,121.9944,541,112.9944" style="stroke:#000000;stroke-width:1.0;"/></g><!--link youtube_downloader to downloader--><g id="link_youtube_downloader_downloader"><path d="M542.04,287.3344 C542.89,306.4744 543.8405,327.5404 544.7005,346.6704 " fill="none" id="youtube_downloader-to-downloader" style="stroke:#000000;stroke-width:1.0;"/><polygon fill="#000000" points="544.97,352.6644,548.5618,343.4938,544.7454,347.6694,540.5698,343.8531,544.97,352.6644" style="stroke:#000000;stroke-width:1.0;"/></g><!--link downloader to pytube--><g id="link_downloader_pytube"><path d="M546,400.9944 C546,429.4544 546,471.3344 546,499.6944 " fill="none" id="downloader-to-pytube" style="stroke:#000000;stroke-width:1.0;"/><polygon fill="#000000" points="546,505.6944,550,496.6944,546,500.6944,542,496.6944,546,505.6944" style="stroke:#000000;stroke-width:1.0;"/></g><!--link PyInstaller to YouTubeDownloader.exe--><g id="link_PyInstaller_YouTubeDownloader.exe"><path d="M675,553.7344 C675,571.3944 675,589.6744 675,607.4144 " fill="none" id="PyInstaller-to-YouTubeDownloader.exe" style="stroke:#000000;stroke-width:1.0;"/><polygon fill="#000000" points="675,613.4144,679,604.4144,675,608.4144,671,604.4144,675,613.4144" style="stroke:#000000;stroke-width:1.0;"/></g><!--SRC=[VL9DQnj13Btlhn3sfJ6rQGcKq4EXJGW4UWWa9OJ5cF6kTZruF1fcjRZJalzUQUEFBMiR7pmhlIVfFQbPMnzCD1jWomxloVEJ_ODm_IbhJgGuEOGbkRAN3QPOcnf_K2mntfAZ24idiI7aKFtpJIzPHsh3sUe5RG9vz7ofllMCiJB5nI4awh1WIxuPmh9E8poz71isG1MyKllSBl6EjjwH4H8y4xaiyrGYZ0RPcIre1AO1-VSmJkWSRRDif_y4eGE_yfs3CPRwWxyP76U0qMIIg6NXBCe3QJBfQCC4ZBzSbpTL9IKyCOB3YbN542a8WEyXE5iOjGIaMKmGIApysYKVl6KmleI6JUGsI13bI-lAyw3eLXONrTbtASNXinC2a6-CzOkjzT9xBf6tFlaNMzVHMddi2SSX5wLXCzUyFdRaJXXJK5sxCCXklOofE_k0ireQyAhv26jCpPLgw33thN_VFaHqXiLgfgx2RAUtSAqkO9bWGmtt3c5sHliBnRNg7Wo-5veFZP_3j9n-6zXo6fcFk-kSjrEXw4bbR-TF3t_Z2CR1jPlUmJqcNibsVzfbDD6Y-AFQN09UsLYAbCZfIcZErYkk8w9NDVbZUb13TOyoNHwIpZRNxfS7LMLz6_Apg7t9_reT8UhHIOd_0000]--></g></svg>