<?xml version="1.0" encoding="us-ascii" standalone="no"?><svg xmlns="http://www.w3.org/2000/svg" xmlns:xlink="http://www.w3.org/1999/xlink" contentStyleType="text/css" height="678px" preserveAspectRatio="none" style="width:799px;height:678px;background:#FFFFFF;" version="1.1" viewBox="0 0 799 678" width="799px" zoomAndPan="magnify"><defs/><g><text fill="#000000" font-family="sans-serif" font-size="30" font-weight="bold" lengthAdjust="spacing" textLength="656" x="64.75" y="41.1426">SW components of YouTube Downloader Tool</text><!--cluster YtDl--><g id="cluster_YtDl"><path d="M8.5,192.7344 L193.5,192.7344 A3.75,3.75 0 0 1 196,195.2344 L203,221.375 L655.5,221.375 A2.5,2.5 0 0 1 658,223.875 L658,438.2344 A2.5,2.5 0 0 1 655.5,440.7344 L8.5,440.7344 A2.5,2.5 0 0 1 6,438.2344 L6,195.2344 A2.5,2.5 0 0 1 8.5,192.7344 " fill="#EDEDED" style="stroke:#000000;stroke-width:1.5;"/><line style="stroke:#000000;stroke-width:1.5;" x1="6" x2="203" y1="221.375" y2="221.375"/><text fill="#000000" font-family="sans-serif" font-size="18" font-weight="bold" lengthAdjust="spacing" textLength="184" x="10" y="213.4199">YouTubeDownloader</text></g><!--cluster controller--><g id="cluster_controller"><path d="M303.5,311.7344 L391.5,311.7344 A3.75,3.75 0 0 1 394,314.2344 L401,340.375 L454.5,340.375 A2.5,2.5 0 0 1 457,342.875 L457,414.2344 A2.5,2.5 0 0 1 454.5,416.7344 L303.5,416.7344 A2.5,2.5 0 0 1 301,414.2344 L301,314.2344 A2.5,2.5 0 0 1 303.5,311.7344 " fill="none" style="stroke:#000000;stroke-width:1.5;"/><line style="stroke:#000000;stroke-width:1.5;" x1="301" x2="401" y1="340.375" y2="340.375"/><text fill="#000000" font-family="sans-serif" font-size="18" font-weight="bold" lengthAdjust="spacing" textLength="87" x="305" y="332.4199">Controller</text></g><!--cluster util--><g id="cluster_util"><path d="M37.5,311.7344 L67.5,311.7344 A3.75,3.75 0 0 1 70,314.2344 L77,340.375 L214.5,340.375 A2.5,2.5 0 0 1 217,342.875 L217,414.2344 A2.5,2.5 0 0 1 214.5,416.7344 L37.5,416.7344 A2.5,2.5 0 0 1 35,414.2344 L35,314.2344 A2.5,2.5 0 0 1 37.5,311.7344 " fill="none" style="stroke:#000000;stroke-width:1.5;"/><line style="stroke:#000000;stroke-width:1.5;" x1="35" x2="77" y1="340.375" y2="340.375"/><text fill="#000000" font-family="sans-serif" font-size="18" font-weight="bold" lengthAdjust="spacing" textLength="29" x="39" y="332.4199">Util</text></g><!--cluster Worker--><g id="cluster_Worker"><path d="M483.5,311.7344 L547.5,311.7344 A3.75,3.75 0 0 1 550,314.2344 L557,340.375 L624.5,340.375 A2.5,2.5 0 0 1 627,342.875 L627,414.2344 A2.5,2.5 0 0 1 624.5,416.7344 L483.5,416.7344 A2.5,2.5 0 0 1 481,414.2344 L481,314.2344 A2.5,2.5 0 0 1 483.5,311.7344 " fill="none" style="stroke:#000000;stroke-width:1.5;"/><line style="stroke:#000000;stroke-width:1.5;" x1="481" x2="557" y1="340.375" y2="340.375"/><text fill="#000000" font-family="sans-serif" font-size="18" font-weight="bold" lengthAdjust="spacing" textLength="63" x="485" y="332.4199">Worker</text></g><!--cluster Python Libraries (mostly third party)--><g id="cluster_Python Libraries (mostly third party)"><path d="M460.5,464.7344 L777.5,464.7344 A3.75,3.75 0 0 1 780,467.2344 L787,493.375 L787.5,493.375 A2.5,2.5 0 0 1 790,495.875 L790,567.2344 A2.5,2.5 0 0 1 787.5,569.7344 L460.5,569.7344 A2.5,2.5 0 0 1 458,567.2344 L458,467.2344 A2.5,2.5 0 0 1 460.5,464.7344 " fill="#90EE90" style="stroke:#000000;stroke-width:1.5;"/><line style="stroke:#000000;stroke-width:1.5;" x1="458" x2="787" y1="493.375" y2="493.375"/><text fill="#000000" font-family="sans-serif" font-size="18" font-weight="bold" lengthAdjust="spacing" textLength="316" x="462" y="485.4199">Python Libraries (mostly third party)</text></g><!--entity youtube_downloader--><g id="elem_youtube_downloader"><rect fill="#63D8FF" height="47.6094" rx="2.5" ry="2.5" style="stroke:#000000;stroke-width:0.5;" width="188" x="454" y="239.2344"/><rect fill="#63D8FF" height="10" style="stroke:#000000;stroke-width:0.5;" width="15" x="622" y="244.2344"/><rect fill="#63D8FF" height="2" style="stroke:#000000;stroke-width:0.5;" width="4" x="620" y="246.2344"/><rect fill="#63D8FF" height="2" style="stroke:#000000;stroke-width:0.5;" width="4" x="620" y="250.2344"/><text fill="#000000" font-family="sans-serif" font-size="14" font-weight="bold" lengthAdjust="spacing" textLength="148" x="469" y="273.7676">youtube_downloader</text></g><g id="elem_GMN5"><path d="M265,241.7344 L265,284.4375 A0,0 0 0 0 265,284.4375 L419,284.4375 A0,0 0 0 0 419,284.4375 L419,267.2344 L453.95,263.2344 L419,259.2344 L419,251.7344 L409,241.7344 L265,241.7344 A0,0 0 0 0 265,241.7344 " fill="#FEFFDD" style="stroke:#181818;stroke-width:0.5;"/><path d="M409,241.7344 L409,251.7344 L419,251.7344 L409,241.7344 " fill="#FEFFDD" style="stroke:#181818;stroke-width:0.5;"/><text fill="#000000" font-family="sans-serif" font-size="13" lengthAdjust="spacing" textLength="133" x="271" y="260.2295">Application entry point:</text><text fill="#000000" font-family="sans-serif" font-size="13" lengthAdjust="spacing" textLength="86" x="271" y="276.5811">Init and startup</text></g><g id="elem_GMN12"><path d="M22.5,233.7344 L22.5,292.7891 A0,0 0 0 0 22.5,292.7891 L122,292.7891 L126,352.7344 L130,292.7891 L229.5,292.7891 A0,0 0 0 0 229.5,292.7891 L229.5,243.7344 L219.5,233.7344 L22.5,233.7344 A0,0 0 0 0 22.5,233.7344 " fill="#FEFFDD" style="stroke:#181818;stroke-width:0.5;"/><path d="M219.5,233.7344 L219.5,243.7344 L229.5,243.7344 L219.5,233.7344 " fill="#FEFFDD" style="stroke:#181818;stroke-width:0.5;"/><text fill="#000000" font-family="sans-serif" font-size="13" lengthAdjust="spacing" textLength="186" x="28.5" y="252.2295">Constants (e.g paths, keys) and</text><text fill="#000000" font-family="sans-serif" font-size="13" lengthAdjust="spacing" textLength="148" x="28.5" y="268.5811">Functions related to data.</text><text fill="#000000" font-family="sans-serif" font-size="13" lengthAdjust="spacing" textLength="178" x="28.5" y="284.9326">Included by most components.</text></g><!--entity main_window--><g id="elem_main_window"><rect fill="#F1F1F1" height="47.6094" rx="2.5" ry="2.5" style="stroke:#000000;stroke-width:0.5;" width="123" x="317.5" y="352.7344"/><rect fill="#F1F1F1" height="10" style="stroke:#000000;stroke-width:0.5;" width="15" x="420.5" y="357.7344"/><rect fill="#F1F1F1" height="2" style="stroke:#000000;stroke-width:0.5;" width="4" x="418.5" y="359.7344"/><rect fill="#F1F1F1" height="2" style="stroke:#000000;stroke-width:0.5;" width="4" x="418.5" y="363.7344"/><text fill="#000000" font-family="sans-serif" font-size="14" lengthAdjust="spacing" textLength="83" x="332.5" y="387.2676">main_window</text></g><!--entity data--><g id="elem_data"><rect fill="#F1F1F1" height="47.6094" rx="2.5" ry="2.5" style="stroke:#000000;stroke-width:0.5;" width="149" x="51.5" y="352.7344"/><rect fill="#F1F1F1" height="10" style="stroke:#000000;stroke-width:0.5;" width="15" x="180.5" y="357.7344"/><rect fill="#F1F1F1" height="2" style="stroke:#000000;stroke-width:0.5;" width="4" x="178.5" y="359.7344"/><rect fill="#F1F1F1" height="2" style="stroke:#000000;stroke-width:0.5;" width="4" x="178.5" y="363.7344"/><text fill="#000000" font-family="sans-serif" font-size="14" lengthAdjust="spacing" textLength="109" x="66.5" y="387.2676">downloader_data</text></g><!--entity downloader--><g id="elem_downloader"><rect fill="#F1F1F1" height="47.6094" rx="2.5" ry="2.5" style="stroke:#000000;stroke-width:0.5;" width="113" x="497.5" y="352.7344"/><rect fill="#F1F1F1" height="10" style="stroke:#000000;stroke-width:0.5;" width="15" x="590.5" y="357.7344"/><rect fill="#F1F1F1" height="2" style="stroke:#000000;stroke-width:0.5;" width="4" x="588.5" y="359.7344"/><rect fill="#F1F1F1" height="2" style="stroke:#000000;stroke-width:0.5;" width="4" x="588.5" y="363.7344"/><text fill="#000000" font-family="sans-serif" font-size="14" lengthAdjust="spacing" textLength="73" x="512.5" y="387.2676">downloader</text></g><!--entity PyInstaller--><g id="elem_PyInstaller"><rect fill="#F1F1F1" height="47.6094" rx="2.5" ry="2.5" style="stroke:#000000;stroke-width:0.5;" width="105" x="630.5" y="505.7344"/><rect fill="#F1F1F1" height="10" style="stroke:#000000;stroke-width:0.5;" width="15" x="715.5" y="510.7344"/><rect fill="#F1F1F1" height="2" style="stroke:#000000;stroke-width:0.5;" width="4" x="713.5" y="512.7344"/><rect fill="#F1F1F1" height="2" style="stroke:#000000;stroke-width:0.5;" width="4" x="713.5" y="516.7344"/><text fill="#000000" font-family="sans-serif" font-size="14" lengthAdjust="spacing" textLength="65" x="645.5" y="540.2676">PyInstaller</text></g><!--entity pytube--><g id="elem_pytube"><rect fill="#F1F1F1" height="47.6094" rx="2.5" ry="2.5" style="stroke:#000000;stroke-width:0.5;" width="83" x="512.5" y="505.7344"/><rect fill="#F1F1F1" height="10" style="stroke:#000000;stroke-width:0.5;" width="15" x="575.5" y="510.7344"/><rect fill="#F1F1F1" height="2" style="stroke:#000000;stroke-width:0.5;" width="4" x="573.5" y="512.7344"/><rect fill="#F1F1F1" height="2" style="stroke:#000000;stroke-width:0.5;" width="4" x="573.5" y="516.7344"/><text fill="#000000" font-family="sans-serif" font-size="14" lengthAdjust="spacing" textLength="43" x="527.5" y="540.2676">pytube</text></g><!--entity icon--><g id="elem_icon"><polygon fill="#FFFF00" points="505,74.7344,515,64.7344,591,64.7344,591,102.3438,581,112.3438,505,112.3438,505,74.7344" style="stroke:#181818;stroke-width:0.5;"/><line style="stroke:#181818;stroke-width:0.5;" x1="581" x2="591" y1="74.7344" y2="64.7344"/><line style="stroke:#181818;stroke-width:0.5;" x1="505" x2="581" y1="74.7344" y2="74.7344"/><line style="stroke:#181818;stroke-width:0.5;" x1="581" x2="581" y1="74.7344" y2="112.3438"/><text fill="#000000" font-family="sans-serif" font-size="14" lengthAdjust="spacing" textLength="46" x="520" y="99.2676">app.ico</text></g><!--entity YouTubeDownloader.exe--><g id="elem_YouTubeDownloader.exe"><polygon fill="#DDA0DD" points="583.5,623.7344,593.5,613.7344,782.5,613.7344,782.5,651.3438,772.5,661.3438,583.5,661.3438,583.5,623.7344" style="stroke:#181818;stroke-width:0.5;"/><line style="stroke:#181818;stroke-width:0.5;" x1="772.5" x2="782.5" y1="623.7344" y2="613.7344"/><line style="stroke:#181818;stroke-width:0.5;" x1="583.5" x2="772.5" y1="623.7344" y2="623.7344"/><line style="stroke:#181818;stroke-width:0.5;" x1="772.5" x2="772.5" y1="623.7344" y2="661.3438"/><text fill="#000000" font-family="sans-serif" font-size="14" lengthAdjust="spacing" textLength="159" x="598.5" y="648.2676">YouTubeDownloader.exe</text></g><!--link youtube_downloader to main_window--><g id="link_youtube_downloader_main_window"><path d="M507.64,287.3044 C498.78,292.5744 489.51,298.2344 481,303.7344 C458.49,318.2844 433.93,335.5744 414.55,349.5644 " fill="none" id="youtube_downloader-to-main_window" style="stroke:#181818;stroke-width:1.0;"/><polygon fill="#181818" points="410.24,352.6744,419.8752,350.634,414.2892,349.7412,415.1821,344.1552,410.24,352.6744" style="stroke:#181818;stroke-width:1.0;"/></g><!--reverse link icon to youtube_downloader--><g id="link_icon_youtube_downloader"><path d="M548,118.2344 C548,152.0444 548,207.7744 548,239.0644 " fill="none" id="icon-backto-youtube_downloader" style="stroke:#000000;stroke-width:1.0;"/><polygon fill="#000000" points="548,112.9944,544,121.9944,548,117.9944,552,121.9944,548,112.9944" style="stroke:#000000;stroke-width:1.0;"/></g><!--link youtube_downloader to downloader--><g id="link_youtube_downloader_downloader"><path d="M549.24,287.3344 C550.18,304.8244 551.48,328.9444 552.48,347.5644 " fill="none" id="youtube_downloader-to-downloader" style="stroke:#000000;stroke-width:1.0;"/><polygon fill="#000000" points="552.76,352.6644,556.2663,343.4608,552.489,347.6717,548.278,343.8944,552.76,352.6644" style="stroke:#000000;stroke-width:1.0;"/></g><!--link downloader to pytube--><g id="link_downloader_pytube"><path d="M554,400.9944 C554,427.7844 554,471.7944 554,500.5144 " fill="none" id="downloader-to-pytube" style="stroke:#000000;stroke-width:1.0;"/><polygon fill="#000000" points="554,505.6944,558,496.6944,554,500.6944,550,496.6944,554,505.6944" style="stroke:#000000;stroke-width:1.0;"/></g><!--link PyInstaller to YouTubeDownloader.exe--><g id="link_PyInstaller_YouTubeDownloader.exe"><path d="M683,553.7344 C683,569.7344 683,591.1844 683,608.2644 " fill="none" id="PyInstaller-to-YouTubeDownloader.exe" style="stroke:#000000;stroke-width:1.0;"/><polygon fill="#000000" points="683,613.4144,687,604.4144,683,608.4144,679,604.4144,683,613.4144" style="stroke:#000000;stroke-width:1.0;"/></g><!--SRC=[VL9DQnj13Btlhn3sfJ7rqX8eeOT2cn08z118IWYBCUDTUJruF1fcjRZJalzUQUEFBMiR7pmhwJtfFQbPMnzCD1jWomxloVEJ_ODm_IbhJgGuEOG5kQgN3QPScnf_KAmmtfAZ20idiM79WVtpJIzPHsh3MVQIDe4yUhx4RprZN9houX0ITLYo9TyCox9E8poz71isG4jufVQvNI3SqTOxCeA2PoANPPugX9498RSbZS0q8FyUnWcTessMxIJ3QCTm9EYAN_dEmHWh_S7V38vjOJIP96fPCFFg09fCEjWm0UClrzNDSYaKdXZ1uP9ry66bL01y3y7PqgWB8CrYWa3YtjSk-U0jW_4LD6mYjq62A5_AAy-3eblPLLGptwMKXyzE242nCTRFjzPBxvb4tlhWNsnT1slbiGSSXvnNXirCy_hOWJjXJ45rxS8Ww_Gofgxf0-QrDE1Lyn7Mc9ehrT3LtBV-VU4GqHaMgvawXdodjtIjBc2HO4CDztQVdz7-Gd6jkWU3xuKMG-DdCAsctmQsdAuinjr1pjgfGFIaihVziGqkASVVE89nSEscTt2FYLUotPzs4KsqAFweDfU0LpPM8YLokXAOi_MAwuZeLKtnc1xKKDsZJ5U4fBFDjFlbGLLPtuRYRDMUyhzMnnBrwAJ4Vm00]--></g></svg>