<svg xmlns="http://www.w3.org/2000/svg" xmlns:xlink="http://www.w3.org/1999/xlink" contentStyleType="text/css" data-diagram-type="DESCRIPTION" height="678px" preserveAspectRatio="none" style="width:684px;height:678px;background:#FFFFFF;" version="1.1" viewBox="0 0 684 678" width="684px" zoomAndPan="magnify"><title>SW components of YouTubeDownloader Tool</title><defs/><g><g class="title" data-source-line="10"><text fill="#000000" font-family="sans-serif" font-size="30" font-weight="bold" lengthAdjust="spacing" textLength="651.6357" x="10" y="41.1426">SW components of YouTubeDownloader Tool</text></g><!--cluster YtDl--><g class="cluster" data-entity="YtDl" data-source-line="14" data-uid="ent0003" id="cluster_YtDl"><path d="M9.8218,192.7344 L190.8218,192.7344 A3.75,3.75 0 0 1 193.3218,195.2344 L200.3218,221.375 L532.8218,221.375 A2.5,2.5 0 0 1 535.3218,223.875 L535.3218,438.2344 A2.5,2.5 0 0 1 532.8218,440.7344 L9.8218,440.7344 A2.5,2.5 0 0 1 7.3218,438.2344 L7.3218,195.2344 A2.5,2.5 0 0 1 9.8218,192.7344" fill="#EDEDED" style="stroke:#000000;stroke-width:1.5;"/><line style="stroke:#000000;stroke-width:1.5;" x1="7.3218" x2="200.3218" y1="221.375" y2="221.375"/><text fill="#000000" font-family="sans-serif" font-size="18" font-weight="bold" lengthAdjust="spacing" textLength="180" x="11.3218" y="213.4199">YouTubeDownloader</text></g><!--cluster controller--><g class="cluster" data-entity="controller" data-source-line="20" data-uid="ent0008" id="cluster_controller"><path d="M187.8218,311.7344 L274.8228,311.7344 A3.75,3.75 0 0 1 277.3228,314.2344 L284.3228,340.375 L340.8218,340.375 A2.5,2.5 0 0 1 343.3218,342.875 L343.3218,414.2344 A2.5,2.5 0 0 1 340.8218,416.7344 L187.8218,416.7344 A2.5,2.5 0 0 1 185.3218,414.2344 L185.3218,314.2344 A2.5,2.5 0 0 1 187.8218,311.7344" fill="none" style="stroke:#000000;stroke-width:1.5;"/><line style="stroke:#000000;stroke-width:1.5;" x1="185.3218" x2="284.3228" y1="340.375" y2="340.375"/><text fill="#000000" font-family="sans-serif" font-size="18" font-weight="bold" lengthAdjust="spacing" textLength="86.001" x="189.3218" y="332.4199">Controller</text></g><!--cluster util--><g class="cluster" data-entity="util" data-source-line="23" data-uid="ent0010" id="cluster_util"><path d="M33.8218,311.7344 L63.8169,311.7344 A3.75,3.75 0 0 1 66.3169,314.2344 L73.3169,340.375 L158.8218,340.375 A2.5,2.5 0 0 1 161.3218,342.875 L161.3218,414.2344 A2.5,2.5 0 0 1 158.8218,416.7344 L33.8218,416.7344 A2.5,2.5 0 0 1 31.3218,414.2344 L31.3218,314.2344 A2.5,2.5 0 0 1 33.8218,311.7344" fill="none" style="stroke:#000000;stroke-width:1.5;"/><line style="stroke:#000000;stroke-width:1.5;" x1="31.3218" x2="73.3169" y1="340.375" y2="340.375"/><text fill="#000000" font-family="sans-serif" font-size="18" font-weight="bold" lengthAdjust="spacing" textLength="28.9951" x="35.3218" y="332.4199">Util</text></g><!--cluster Worker--><g class="cluster" data-entity="Worker" data-source-line="31" data-uid="ent0015" id="cluster_Worker"><path d="M369.8218,311.7344 L432.8374,311.7344 A3.75,3.75 0 0 1 435.3374,314.2344 L442.3374,340.375 L508.8218,340.375 A2.5,2.5 0 0 1 511.3218,342.875 L511.3218,414.2344 A2.5,2.5 0 0 1 508.8218,416.7344 L369.8218,416.7344 A2.5,2.5 0 0 1 367.3218,414.2344 L367.3218,314.2344 A2.5,2.5 0 0 1 369.8218,311.7344" fill="none" style="stroke:#000000;stroke-width:1.5;"/><line style="stroke:#000000;stroke-width:1.5;" x1="367.3218" x2="442.3374" y1="340.375" y2="340.375"/><text fill="#000000" font-family="sans-serif" font-size="18" font-weight="bold" lengthAdjust="spacing" textLength="62.0156" x="371.3218" y="332.4199">Worker</text></g><!--cluster Python Libraries (mostly third party)--><g class="cluster" data-entity="Python Libraries .mostly third party." data-source-line="40" data-uid="ent0021" id="cluster_Python Libraries .mostly third party."><path d="M348.8218,464.7344 L660.8667,464.7344 A3.75,3.75 0 0 1 663.3667,467.2344 L670.3667,493.375 L670.8218,493.375 A2.5,2.5 0 0 1 673.3218,495.875 L673.3218,567.2344 A2.5,2.5 0 0 1 670.8218,569.7344 L348.8218,569.7344 A2.5,2.5 0 0 1 346.3218,567.2344 L346.3218,467.2344 A2.5,2.5 0 0 1 348.8218,464.7344" fill="#90EE90" style="stroke:#000000;stroke-width:1.5;"/><line style="stroke:#000000;stroke-width:1.5;" x1="346.3218" x2="670.3667" y1="493.375" y2="493.375"/><text fill="#000000" font-family="sans-serif" font-size="18" font-weight="bold" lengthAdjust="spacing" textLength="311.0449" x="350.3218" y="485.4199">Python Libraries (mostly third party)</text></g><!--entity app--><g class="entity" data-entity="app" data-source-line="15" data-uid="ent0004" id="entity_app"><rect fill="#63D8FF" height="47.6094" rx="2.5" ry="2.5" style="stroke:#000000;stroke-width:0.5;" width="64.8896" x="451.8218" y="239.2344"/><rect fill="#63D8FF" height="10" style="stroke:#000000;stroke-width:0.5;" width="15" x="496.7114" y="244.2344"/><rect fill="#63D8FF" height="2" style="stroke:#000000;stroke-width:0.5;" width="4" x="494.7114" y="246.2344"/><rect fill="#63D8FF" height="2" style="stroke:#000000;stroke-width:0.5;" width="4" x="494.7114" y="250.2344"/><text fill="#000000" font-family="sans-serif" font-size="14" font-weight="bold" lengthAdjust="spacing" textLength="24.8896" x="466.8218" y="273.7676">app</text></g><g class="entity" data-entity="GMN5" data-source-line="17" data-uid="ent0006" id="entity_GMN5"><path d="M263.8218,241.7344 L263.8218,284.4375 A0,0 0 0 0 263.8218,284.4375 L416.3452,284.4375 A0,0 0 0 0 416.3452,284.4375 L416.3452,267.2344 L451.7618,263.2344 L416.3452,259.2344 L416.3452,251.7344 L406.3452,241.7344 L263.8218,241.7344 A0,0 0 0 0 263.8218,241.7344" fill="#FEFFDD" style="stroke:#181818;stroke-width:0.5;"/><path d="M406.3452,241.7344 L406.3452,251.7344 L416.3452,251.7344 L406.3452,241.7344" fill="#FEFFDD" style="stroke:#181818;stroke-width:0.5;"/><text fill="#000000" font-family="sans-serif" font-size="13" lengthAdjust="spacing" textLength="131.5234" x="269.8218" y="260.2295">Application entry point:</text><text fill="#000000" font-family="sans-serif" font-size="13" lengthAdjust="spacing" textLength="85.998" x="269.8218" y="276.5811">Init and startup</text></g><g class="entity" data-entity="GMN12" data-source-line="27" data-uid="ent0013" id="entity_GMN12"><path d="M23.8218,233.7344 L23.8218,292.7891 A0,0 0 0 0 23.8218,292.7891 L114.5918,292.7891 L102.5118,352.7344 L122.5918,292.7891 L228.3643,292.7891 A0,0 0 0 0 228.3643,292.7891 L228.3643,243.7344 L218.3643,233.7344 L23.8218,233.7344 A0,0 0 0 0 23.8218,233.7344" fill="#FEFFDD" style="stroke:#181818;stroke-width:0.5;"/><path d="M218.3643,233.7344 L218.3643,243.7344 L228.3643,243.7344 L218.3643,233.7344" fill="#FEFFDD" style="stroke:#181818;stroke-width:0.5;"/><text fill="#000000" font-family="sans-serif" font-size="13" lengthAdjust="spacing" textLength="183.5425" x="29.8218" y="252.2295">Constants (e.g paths, keys) and</text><text fill="#000000" font-family="sans-serif" font-size="13" lengthAdjust="spacing" textLength="146.7007" x="29.8218" y="268.5811">Functions related to data.</text><text fill="#000000" font-family="sans-serif" font-size="13" lengthAdjust="spacing" textLength="176.3188" x="29.8218" y="284.9326">Included by most components.</text></g><!--entity main_window--><g class="entity" data-entity="main_window" data-source-line="21" data-uid="ent0009" id="entity_main_window"><rect fill="#F1F1F1" height="47.6094" rx="2.5" ry="2.5" style="stroke:#000000;stroke-width:0.5;" width="124.8203" x="201.8218" y="352.7344"/><rect fill="#F1F1F1" height="10" style="stroke:#000000;stroke-width:0.5;" width="15" x="306.6421" y="357.7344"/><rect fill="#F1F1F1" height="2" style="stroke:#000000;stroke-width:0.5;" width="4" x="304.6421" y="359.7344"/><rect fill="#F1F1F1" height="2" style="stroke:#000000;stroke-width:0.5;" width="4" x="304.6421" y="363.7344"/><text fill="#000000" font-family="sans-serif" font-size="14" lengthAdjust="spacing" textLength="84.8203" x="216.8218" y="387.2676">main_window</text></g><!--entity data--><g class="entity" data-entity="data" data-source-line="24" data-uid="ent0011" id="entity_data"><rect fill="#F1F1F1" height="47.6094" rx="2.5" ry="2.5" style="stroke:#000000;stroke-width:0.5;" width="98.3926" x="47.3218" y="352.7344"/><rect fill="#F1F1F1" height="10" style="stroke:#000000;stroke-width:0.5;" width="15" x="125.7144" y="357.7344"/><rect fill="#F1F1F1" height="2" style="stroke:#000000;stroke-width:0.5;" width="4" x="123.7144" y="359.7344"/><rect fill="#F1F1F1" height="2" style="stroke:#000000;stroke-width:0.5;" width="4" x="123.7144" y="363.7344"/><text fill="#000000" font-family="sans-serif" font-size="14" lengthAdjust="spacing" textLength="58.3926" x="62.3218" y="387.2676">app_data</text></g><!--entity downloader--><g class="entity" data-entity="downloader" data-source-line="32" data-uid="ent0016" id="entity_downloader"><rect fill="#F1F1F1" height="47.6094" rx="2.5" ry="2.5" style="stroke:#000000;stroke-width:0.5;" width="112.3857" x="383.3218" y="352.7344"/><rect fill="#F1F1F1" height="10" style="stroke:#000000;stroke-width:0.5;" width="15" x="475.7075" y="357.7344"/><rect fill="#F1F1F1" height="2" style="stroke:#000000;stroke-width:0.5;" width="4" x="473.7075" y="359.7344"/><rect fill="#F1F1F1" height="2" style="stroke:#000000;stroke-width:0.5;" width="4" x="473.7075" y="363.7344"/><text fill="#000000" font-family="sans-serif" font-size="14" lengthAdjust="spacing" textLength="72.3857" x="398.3218" y="387.2676">downloader</text></g><!--entity PyInstaller--><g class="entity" data-entity="PyInstaller" data-source-line="41" data-uid="ent0022" id="entity_PyInstaller"><rect fill="#F1F1F1" height="47.6094" rx="2.5" ry="2.5" style="stroke:#000000;stroke-width:0.5;" width="105.3584" x="515.8218" y="505.7344"/><rect fill="#F1F1F1" height="10" style="stroke:#000000;stroke-width:0.5;" width="15" x="601.1802" y="510.7344"/><rect fill="#F1F1F1" height="2" style="stroke:#000000;stroke-width:0.5;" width="4" x="599.1802" y="512.7344"/><rect fill="#F1F1F1" height="2" style="stroke:#000000;stroke-width:0.5;" width="4" x="599.1802" y="516.7344"/><text fill="#000000" font-family="sans-serif" font-size="14" lengthAdjust="spacing" textLength="65.3584" x="530.8218" y="540.2676">PyInstaller</text></g><!--entity pytube--><g class="entity" data-entity="pytube" data-source-line="42" data-uid="ent0023" id="entity_pytube"><rect fill="#F1F1F1" height="47.6094" rx="2.5" ry="2.5" style="stroke:#000000;stroke-width:0.5;" width="82.0342" x="398.3218" y="505.7344"/><rect fill="#F1F1F1" height="10" style="stroke:#000000;stroke-width:0.5;" width="15" x="460.356" y="510.7344"/><rect fill="#F1F1F1" height="2" style="stroke:#000000;stroke-width:0.5;" width="4" x="458.356" y="512.7344"/><rect fill="#F1F1F1" height="2" style="stroke:#000000;stroke-width:0.5;" width="4" x="458.356" y="516.7344"/><text fill="#000000" font-family="sans-serif" font-size="14" lengthAdjust="spacing" textLength="42.0342" x="413.3218" y="540.2676">pytube</text></g><!--entity icon--><g class="entity" data-entity="icon" data-source-line="12" data-uid="ent0002" id="entity_icon"><polygon fill="#FFFF00" points="441.8218,74.7344,451.8218,64.7344,526.9663,64.7344,526.9663,102.3438,516.9663,112.3438,441.8218,112.3438,441.8218,74.7344" style="stroke:#181818;stroke-width:0.5;"/><line style="stroke:#181818;stroke-width:0.5;" x1="516.9663" x2="526.9663" y1="74.7344" y2="64.7344"/><line style="stroke:#181818;stroke-width:0.5;" x1="441.8218" x2="516.9663" y1="74.7344" y2="74.7344"/><line style="stroke:#181818;stroke-width:0.5;" x1="516.9663" x2="516.9663" y1="74.7344" y2="112.3438"/><text fill="#000000" font-family="sans-serif" font-size="14" lengthAdjust="spacing" textLength="45.1445" x="456.8218" y="99.2676">app.ico</text></g><!--entity YouTubeDownloader.exe--><g class="entity" data-entity="YouTubeDownloader.exe" data-source-line="38" data-uid="ent0020" id="entity_YouTubeDownloader.exe"><polygon fill="#DDA0DD" points="469.3218,623.7344,479.3218,613.7344,667.314,613.7344,667.314,651.3438,657.314,661.3438,469.3218,661.3438,469.3218,623.7344" style="stroke:#181818;stroke-width:0.5;"/><line style="stroke:#181818;stroke-width:0.5;" x1="657.314" x2="667.314" y1="623.7344" y2="613.7344"/><line style="stroke:#181818;stroke-width:0.5;" x1="469.3218" x2="657.314" y1="623.7344" y2="623.7344"/><line style="stroke:#181818;stroke-width:0.5;" x1="657.314" x2="657.314" y1="623.7344" y2="661.3438"/><text fill="#000000" font-family="sans-serif" font-size="14" lengthAdjust="spacing" textLength="157.9922" x="484.3218" y="648.2676">YouTubeDownloader.exe</text></g><!--link app to main_window--><g class="link" data-entity-1="app" data-entity-2="main_window" data-source-line="34" data-uid="lnk17" id="link_app_main_window"><path d="M451.7618,284.9644 C446.1018,287.9244 440.1618,290.6644 434.3218,292.7344 C405.8818,302.8044 395.2718,292.3644 367.3218,303.7344 C338.6218,315.4144 314.7007,332.4668 294.9607,348.7468" fill="none" id="app-to-main_window" style="stroke:#181818;stroke-width:1;"/><polygon fill="#181818" points="290.3318,352.5644,299.8201,349.924,294.1892,349.3831,294.7301,343.7522,290.3318,352.5644" style="stroke:#181818;stroke-width:1;"/></g><!--reverse link icon to app--><g class="link" data-entity-1="icon" data-entity-2="app" data-source-line="35" data-uid="lnk19" id="link_icon_app"><path d="M484.3218,118.9944 C484.3218,152.0144 484.3218,206.1044 484.3218,239.0644" fill="none" id="icon-backto-app" style="stroke:#000000;stroke-width:1;"/><polygon fill="#000000" points="484.3218,112.9944,480.3218,121.9944,484.3218,117.9944,488.3218,121.9944,484.3218,112.9944" style="stroke:#000000;stroke-width:1;"/></g><!--link app to downloader--><g class="link" data-entity-1="app" data-entity-2="downloader" data-source-line="45" data-uid="lnk24" id="link_app_downloader"><path d="M475.0018,287.3344 C467.2718,306.4744 458.5972,327.9704 450.8772,347.1004" fill="none" id="app-to-downloader" style="stroke:#000000;stroke-width:1;"/><polygon fill="#000000" points="448.6318,352.6644,455.7092,345.8153,450.5029,348.0277,448.2905,342.8214,448.6318,352.6644" style="stroke:#000000;stroke-width:1;"/></g><!--link downloader to pytube--><g class="link" data-entity-1="downloader" data-entity-2="pytube" data-source-line="46" data-uid="lnk25" id="link_downloader_pytube"><path d="M439.3218,400.9944 C439.3218,429.4544 439.3218,471.3344 439.3218,499.6944" fill="none" id="downloader-to-pytube" style="stroke:#000000;stroke-width:1;"/><polygon fill="#000000" points="439.3218,505.6944,443.3218,496.6944,439.3218,500.6944,435.3218,496.6944,439.3218,505.6944" style="stroke:#000000;stroke-width:1;"/></g><!--link PyInstaller to YouTubeDownloader.exe--><g class="link" data-entity-1="PyInstaller" data-entity-2="YouTubeDownloader.exe" data-source-line="47" data-uid="lnk26" id="link_PyInstaller_YouTubeDownloader.exe"><path d="M568.3218,553.7344 C568.3218,571.3944 568.3218,589.6744 568.3218,607.4144" fill="none" id="PyInstaller-to-YouTubeDownloader.exe" style="stroke:#000000;stroke-width:1;"/><polygon fill="#000000" points="568.3218,613.4144,572.3218,604.4144,568.3218,608.4144,564.3218,604.4144,568.3218,613.4144" style="stroke:#000000;stroke-width:1;"/></g><!--SRC=[VL9DQzj04BthLmpofJ6rQ0cKq4CX7mG2FGII4e8nOQqTsujNEyjgXAkM_FVEABAjL4dGGRlpyUQzDrjlNOWccGhOiSTh2dpd_Y2SVidgDrBSUeGbUJl8HbDkpHelA5bCb-GfmT9BR5noGFzwDaYk4pNnNVIIgaW10t-4xm9ZMfdoGn8IzLYoer2Fox9E8zmz70VMG2jufEQ-MU8LxO8d8qrmJ-IpB915o4sCXIif1rE3_0DCMlIUTbdMAuPy1D0LF_ALXmbQ_U1l1iUfa4-d0ZkTTdLoWictKtksMabH84Rmk69b9Ya90Pp7w5rfL1T8VseXalZnlKlU1CTWWeMQJU96Er1k2YJ70ybBSJ-fFI_ioiErumOmhumBJpiNBEqM4daUDlzYvxksHWxx1c7tP0sRXIRqq7Tr4fYYAkZ389i9mayT_uJ5Mf1vKt-6BRRrYPBlQgwRyB8xIEWDYsrC7KBH2orzesOkMwYevi4QYtT4Fr3Qgk2UiJriQAzGHInWPcS_HWRqgVcaUpsBPYOr-W2ov_tJ6EszmD-OmoJwfXeyZzkMDxAudswPJ78e3YXxtm9lNB92Dd5x8ctUhJUyJeX1-SvlsnkrJ5SaTEQnPPcrqEd_CLFkGsN3o-kgFSOhx6E9kl2cfdy0]--></g></svg>