<?xml version="1.0" encoding="UTF-8" standalone="no"?>
<!DOCTYPE svg PUBLIC "-//W3C//DTD SVG 1.1//EN"
 "http://www.w3.org/Graphics/SVG/1.1/DTD/svg11.dtd">
<!-- Generated by graphviz version 11.0.0 (20240428.1522)
 -->
<!-- Title: OpenNotepad Pages: 1 -->
<svg width="77pt" height="164pt"
 viewBox="0.00 0.00 77.00 164.00" xmlns="http://www.w3.org/2000/svg" xmlns:xlink="http://www.w3.org/1999/xlink">
<g id="graph0" class="graph" transform="scale(1 1) rotate(0) translate(4 160)">
<title>OpenNotepad</title>
<!-- Node1 -->
<g id="Node000001" class="node">
<title>Node1</title>
<g id="a_Node000001"><a xlink:title="Class to open Notepad in thread to prevent program stop until close file.">
<polygon fill="#999999" stroke="none" points="69,-68 0,-68 0,0 69,0 69,-68"/>
<text text-anchor="start" x="4.88" y="-54.5" font-family="Helvetica,sans-Serif" font-size="10.00">OpenNotepad</text>
<text text-anchor="start" x="7" y="-38.5" font-family="Helvetica,sans-Serif" font-size="10.00">+</text>
<text text-anchor="start" x="20" y="-38.5" font-family="Helvetica,sans-Serif" font-size="10.00">s_file</text>
<text text-anchor="start" x="7" y="-22.5" font-family="Helvetica,sans-Serif" font-size="10.00">+</text>
<text text-anchor="start" x="20" y="-22.5" font-family="Helvetica,sans-Serif" font-size="10.00">__init__()</text>
<text text-anchor="start" x="7" y="-6.5" font-family="Helvetica,sans-Serif" font-size="10.00">+</text>
<text text-anchor="start" x="20" y="-6.5" font-family="Helvetica,sans-Serif" font-size="10.00">run()</text>
<polygon fill="#666666" stroke="#666666" points="0,-50 0,-50 69,-50 69,-50 0,-50"/>
<polygon fill="#666666" stroke="#666666" points="0,-34 0,-34 18,-34 18,-34 0,-34"/>
<polygon fill="#666666" stroke="#666666" points="18,-34 18,-34 69,-34 69,-34 18,-34"/>
<polygon fill="none" stroke="#666666" points="0,0 0,-68 69,-68 69,0 0,0"/>
</a>
</g>
</g>
<!-- Node2 -->
<g id="Node000002" class="node">
<title>Node2</title>
<g id="a_Node000002"><a xlink:title=" ">
<polygon fill="white" stroke="none" points="54,-156 15,-156 15,-104 54,-104 54,-156"/>
<text text-anchor="start" x="19.88" y="-142.5" font-family="Helvetica,sans-Serif" font-size="10.00">Thread</text>
<text text-anchor="start" x="33" y="-126.5" font-family="Helvetica,sans-Serif" font-size="10.00"> </text>
<text text-anchor="start" x="33" y="-110.5" font-family="Helvetica,sans-Serif" font-size="10.00"> </text>
<polygon fill="#666666" stroke="#666666" points="15,-138 15,-138 54,-138 54,-138 15,-138"/>
<polygon fill="#666666" stroke="#666666" points="15,-122 15,-122 54,-122 54,-122 15,-122"/>
<polygon fill="none" stroke="#666666" points="15,-104 15,-156 54,-156 54,-104 15,-104"/>
</a>
</g>
</g>
<!-- Node2&#45;&gt;Node1 -->
<g id="edge1_Node000001_Node000002" class="edge">
<title>Node2&#45;&gt;Node1</title>
<g id="a_edge1_Node000001_Node000002"><a xlink:title=" ">
<path fill="none" stroke="#63b8ff" d="M34.5,-92.97C34.5,-84.65 34.5,-75.84 34.5,-67.67"/>
<polygon fill="none" stroke="#63b8ff" points="31,-92.79 34.5,-102.79 38,-92.79 31,-92.79"/>
</a>
</g>
</g>
</g>
</svg>
