<?xml version="1.0" encoding="UTF-8" standalone="no"?>
<!DOCTYPE svg PUBLIC "-//W3C//DTD SVG 1.1//EN"
 "http://www.w3.org/Graphics/SVG/1.1/DTD/svg11.dtd">
<!-- Generated by graphviz version 12.1.2 (20240928.0832)
 -->
<!-- Title: Cipher Pages: 1 -->
<svg width="177pt" height="272pt"
 viewBox="0.00 0.00 176.52 272.00" xmlns="http://www.w3.org/2000/svg" xmlns:xlink="http://www.w3.org/1999/xlink">

<svg id="main" version="1.1" xmlns="http://www.w3.org/2000/svg" xmlns:xlink="http://www.w3.org/1999/xlink" xml:space="preserve">

<style type="text/css"><![CDATA[
.node, .edge {opacity: 0.7;}
.node.selected, .edge.selected {opacity: 1;}
.edge:hover path { stroke: red; }
.edge:hover polygon { stroke: red; fill: red; }
]]></style>
<script type="application/ecmascript" xlink:href="svg.min.js"/>
<svg id="graph" class="graph">
<g id="graph0" class="graph" transform="scale(1 1) rotate(0) translate(4 268)">
<title>Cipher</title>
<!-- Node1 -->
<g id="Node000001" class="node">
<title>Node1</title>
<g id="a_Node000001"><a xlink:title=" ">
<polygon fill="#999999" stroke="none" points="105.5,-164 15.5,-164 15.5,0 105.5,0 105.5,-164"/>
<text text-anchor="start" x="46.25" y="-150.5" font-family="Helvetica,sans-Serif" font-size="10.00">Cipher</text>
<text text-anchor="start" x="19.5" y="-134.5" font-family="Helvetica,sans-Serif" font-size="10.00">+</text>
<text text-anchor="start" x="29.5" y="-134.5" font-family="Helvetica,sans-Serif" font-size="10.00">calculated_n</text>
<text text-anchor="start" x="19.5" y="-118.5" font-family="Helvetica,sans-Serif" font-size="10.00">+</text>
<text text-anchor="start" x="29.5" y="-118.5" font-family="Helvetica,sans-Serif" font-size="10.00">js_func_patterns</text>
<text text-anchor="start" x="19.5" y="-102.5" font-family="Helvetica,sans-Serif" font-size="10.00">+</text>
<text text-anchor="start" x="29.5" y="-102.5" font-family="Helvetica,sans-Serif" font-size="10.00">throttling_array</text>
<text text-anchor="start" x="19.5" y="-86.5" font-family="Helvetica,sans-Serif" font-size="10.00">+</text>
<text text-anchor="start" x="29.5" y="-86.5" font-family="Helvetica,sans-Serif" font-size="10.00">throttling_plan</text>
<text text-anchor="start" x="19.5" y="-70.5" font-family="Helvetica,sans-Serif" font-size="10.00">+</text>
<text text-anchor="start" x="29.5" y="-70.5" font-family="Helvetica,sans-Serif" font-size="10.00">transform_map</text>
<text text-anchor="start" x="19.5" y="-54.5" font-family="Helvetica,sans-Serif" font-size="10.00">+</text>
<text text-anchor="start" x="29.5" y="-54.5" font-family="Helvetica,sans-Serif" font-size="10.00">__init__()</text>
<text text-anchor="start" x="19.5" y="-38.5" font-family="Helvetica,sans-Serif" font-size="10.00">+</text>
<text text-anchor="start" x="29.5" y="-38.5" font-family="Helvetica,sans-Serif" font-size="10.00">calculate_n()</text>
<text text-anchor="start" x="19.5" y="-22.5" font-family="Helvetica,sans-Serif" font-size="10.00">+</text>
<text text-anchor="start" x="29.5" y="-22.5" font-family="Helvetica,sans-Serif" font-size="10.00">get_signature()</text>
<text text-anchor="start" x="19.5" y="-6.5" font-family="Helvetica,sans-Serif" font-size="10.00">+</text>
<text text-anchor="start" x="29.5" y="-6.5" font-family="Helvetica,sans-Serif" font-size="10.00">parse_function()</text>
<polygon fill="#666666" stroke="#666666" points="15.5,-146 15.5,-146 105.5,-146 105.5,-146 15.5,-146"/>
<polygon fill="#666666" stroke="#666666" points="15.5,-66 15.5,-66 27.5,-66 27.5,-66 15.5,-66"/>
<polygon fill="#666666" stroke="#666666" points="27.5,-66 27.5,-66 105.5,-66 105.5,-66 27.5,-66"/>
<polygon fill="none" stroke="#666666" points="15.5,0 15.5,-164 105.5,-164 105.5,0 15.5,0"/>
</a>
</g>
</g>
<!-- Node2 -->
<g id="Node000002" class="node">
<title>Node2</title>
<g id="a_Node000002"><a xlink:title=" ">
<polygon fill="white" stroke="none" points="25,-264 0,-264 0,-212 25,-212 25,-264"/>
<text text-anchor="start" x="4.62" y="-250.5" font-family="Helvetica,sans-Serif" font-size="10.00">List</text>
<text text-anchor="start" x="11" y="-234.5" font-family="Helvetica,sans-Serif" font-size="10.00"> </text>
<text text-anchor="start" x="11" y="-218.5" font-family="Helvetica,sans-Serif" font-size="10.00"> </text>
<polygon fill="#666666" stroke="#666666" points="0,-246 0,-246 25,-246 25,-246 0,-246"/>
<polygon fill="#666666" stroke="#666666" points="0,-230 0,-230 25,-230 25,-230 0,-230"/>
<polygon fill="none" stroke="#666666" points="0,-212 0,-264 25,-264 25,-212 0,-212"/>
</a>
</g>
</g>
<!-- Node2&#45;&gt;Node1 -->
<g id="edge1_Node000001_Node000002" class="edge">
<title>Node2&#45;&gt;Node1</title>
<g id="a_edge1_Node000001_Node000002"><a xlink:title=" ">
<path fill="none" stroke="#63b8ff" d="M11.03,-212.08C11.03,-202.55 11.7,-191.67 14,-182 14.45,-180.12 14.93,-178.24 15.45,-176.35"/>
<polygon fill="none" stroke="#63b8ff" points="15.49,-176.21 13.45,-169.29 19.05,-164.75 21.09,-171.67 15.49,-176.21"/>
</a>
</g>
<text text-anchor="middle" x="50.75" y="-184.5" font-family="Helvetica,sans-Serif" font-size="10.00" fill="grey"> +transform_plan</text>
</g>
<!-- Node3 -->
<g id="Node000003" class="node">
<title>Node3</title>
<g id="a_Node000003"><a xlink:title=" ">
<polygon fill="white" stroke="none" points="126.5,-264 92.5,-264 92.5,-212 126.5,-212 126.5,-264"/>
<text text-anchor="start" x="97.5" y="-250.5" font-family="Helvetica,sans-Serif" font-size="10.00">Tuple</text>
<text text-anchor="start" x="108" y="-234.5" font-family="Helvetica,sans-Serif" font-size="10.00"> </text>
<text text-anchor="start" x="108" y="-218.5" font-family="Helvetica,sans-Serif" font-size="10.00"> </text>
<polygon fill="#666666" stroke="#666666" points="92.5,-246 92.5,-246 126.5,-246 126.5,-246 92.5,-246"/>
<polygon fill="#666666" stroke="#666666" points="92.5,-230 92.5,-230 126.5,-230 126.5,-230 92.5,-230"/>
<polygon fill="none" stroke="#666666" points="92.5,-212 92.5,-264 126.5,-264 126.5,-212 92.5,-212"/>
</a>
</g>
</g>
<!-- Node3&#45;&gt;Node1 -->
<g id="edge2_Node000001_Node000003" class="edge">
<title>Node3&#45;&gt;Node1</title>
<g id="a_edge2_Node000001_Node000003"><a xlink:title=" ">
<path fill="none" stroke="#63b8ff" d="M101.63,-212.26C98.38,-202.04 94.38,-189.49 90.18,-176.28"/>
<polygon fill="none" stroke="#63b8ff" points="90.18,-176.29 84.55,-171.79 86.55,-164.86 92.18,-169.36 90.18,-176.29"/>
</a>
</g>
<text text-anchor="middle" x="131.77" y="-184.5" font-family="Helvetica,sans-Serif" font-size="10.00" fill="grey"> +transform_plan</text>
</g>
</g>
</svg>
</svg>

<style type='text/css'>
<![CDATA[
[data-mouse-over-selected='false'] { opacity: 0.7; }
[data-mouse-over-selected='true']  { opacity: 1.0; }
]]>
</style>
<script type="application/ecmascript"><![CDATA[
document.addEventListener('DOMContentLoaded', (event) => {
  highlightEdges();
  highlightAdjacentNodes();
});
]]></script>
</svg>
