<?xml version="1.0" encoding="UTF-8" standalone="no"?>
<!DOCTYPE svg PUBLIC "-//W3C//DTD SVG 1.1//EN"
 "http://www.w3.org/Graphics/SVG/1.1/DTD/svg11.dtd">
<!-- Generated by graphviz version 8.1.0 (20230707.0739)
 -->
<!-- Title: DownloadThread Pages: 1 -->
<svg width="133pt" height="274pt"
 viewBox="0.00 0.00 132.75 274.00" xmlns="http://www.w3.org/2000/svg" xmlns:xlink="http://www.w3.org/1999/xlink">
<g id="graph0" class="graph" transform="scale(1 1) rotate(0) translate(4 270)">
<title>DownloadThread</title>
<!-- Node1 -->
<g id="node1" class="node">
<title>Node1</title>
<g id="a_node1"><a xlink:title="Thread class for download.">
<polygon fill="#bfbfbf" stroke="black" points="0,-0.5 0,-168.5 124.75,-168.5 124.75,-0.5 0,-0.5"/>
<text text-anchor="middle" x="62.38" y="-155" font-family="Helvetica,sans-Serif" font-size="10.00">DownloadThread</text>
<polyline fill="none" stroke="black" points="0,-148.5 124.75,-148.5"/>
<text text-anchor="start" x="8" y="-135" font-family="Helvetica,sans-Serif" font-size="10.00">+ b_first_callback_call</text>
<text text-anchor="start" x="8" y="-123" font-family="Helvetica,sans-Serif" font-size="10.00">+ d_speed_history</text>
<text text-anchor="start" x="8" y="-111" font-family="Helvetica,sans-Serif" font-size="10.00">+ f_time_stamp</text>
<text text-anchor="start" x="8" y="-99" font-family="Helvetica,sans-Serif" font-size="10.00">+ gui</text>
<text text-anchor="start" x="8" y="-87" font-family="Helvetica,sans-Serif" font-size="10.00">+ i_file_size</text>
<text text-anchor="start" x="8" y="-75" font-family="Helvetica,sans-Serif" font-size="10.00">+ i_last_bytes_remaining</text>
<text text-anchor="start" x="8" y="-63" font-family="Helvetica,sans-Serif" font-size="10.00">+ i_last_percent</text>
<polyline fill="none" stroke="black" points="0,-56.5 124.75,-56.5"/>
<text text-anchor="start" x="8" y="-43" font-family="Helvetica,sans-Serif" font-size="10.00">+ __init__()</text>
<text text-anchor="start" x="8" y="-31" font-family="Helvetica,sans-Serif" font-size="10.00">+ clear_data()</text>
<text text-anchor="start" x="8" y="-19" font-family="Helvetica,sans-Serif" font-size="10.00">+ progress_callback()</text>
<text text-anchor="start" x="8" y="-7" font-family="Helvetica,sans-Serif" font-size="10.00">+ run()</text>
</a>
</g>
</g>
<!-- Node2 -->
<g id="node2" class="node">
<title>Node2</title>
<g id="a_node2"><a xlink:title=" ">
<polygon fill="none" stroke="#bfbfbf" points="39.75,-205.5 39.75,-265.5 85,-265.5 85,-205.5 39.75,-205.5"/>
<text text-anchor="middle" x="62.38" y="-252" font-family="Helvetica,sans-Serif" font-size="10.00">Thread</text>
<polyline fill="none" stroke="#bfbfbf" points="39.75,-245.5 85,-245.5"/>
<text text-anchor="middle" x="62.38" y="-232" font-family="Helvetica,sans-Serif" font-size="10.00"> </text>
<polyline fill="none" stroke="#bfbfbf" points="39.75,-225.5 85,-225.5"/>
<text text-anchor="middle" x="62.38" y="-212" font-family="Helvetica,sans-Serif" font-size="10.00"> </text>
</a>
</g>
</g>
<!-- Node2&#45;&gt;Node1 -->
<g id="edge1" class="edge">
<title>Node2&#45;&gt;Node1</title>
<path fill="none" stroke="midnightblue" d="M62.38,-194.97C62.38,-186.67 62.38,-177.62 62.38,-168.4"/>
<polygon fill="none" stroke="midnightblue" points="58.88,-194.77 62.38,-204.77 65.88,-194.77 58.88,-194.77"/>
</g>
</g>
</svg>
