<?xml version="1.0" encoding="UTF-8" standalone="no"?>
<!DOCTYPE svg PUBLIC "-//W3C//DTD SVG 1.1//EN"
 "http://www.w3.org/Graphics/SVG/1.1/DTD/svg11.dtd">
<!-- Generated by graphviz version 12.1.2 (20240928.0832)
 -->
<!-- Title: PackageInfo Pages: 1 -->
<svg width="73pt" height="148pt"
 viewBox="0.00 0.00 73.00 148.00" xmlns="http://www.w3.org/2000/svg" xmlns:xlink="http://www.w3.org/1999/xlink">

<svg id="main" version="1.1" xmlns="http://www.w3.org/2000/svg" xmlns:xlink="http://www.w3.org/1999/xlink" xml:space="preserve">

<style type="text/css"><![CDATA[
.node, .edge {opacity: 0.7;}
.node.selected, .edge.selected {opacity: 1;}
.edge:hover path { stroke: red; }
.edge:hover polygon { stroke: red; fill: red; }
]]></style>
<script type="application/ecmascript" xlink:href="svg.min.js"/>
<svg id="graph" class="graph">
<g id="graph0" class="graph" transform="scale(1 1) rotate(0) translate(4 144)">
<title>PackageInfo</title>
<!-- Node1 -->
<g id="Node000001" class="node">
<title>Node1</title>
<g id="a_Node000001"><a xlink:title="Package Information.">
<polygon fill="#999999" stroke="none" points="64.5,-52 0.5,-52 0.5,0 64.5,0 64.5,-52"/>
<text text-anchor="start" x="5.12" y="-38.5" font-family="Helvetica,sans-Serif" font-size="10.00">PackageInfo</text>
<text text-anchor="start" x="31" y="-22.5" font-family="Helvetica,sans-Serif" font-size="10.00"> </text>
<text text-anchor="start" x="31" y="-6.5" font-family="Helvetica,sans-Serif" font-size="10.00"> </text>
<polygon fill="#666666" stroke="#666666" points="0.5,-34 0.5,-34 64.5,-34 64.5,-34 0.5,-34"/>
<polygon fill="#666666" stroke="#666666" points="0.5,-18 0.5,-18 64.5,-18 64.5,-18 0.5,-18"/>
<polygon fill="none" stroke="#666666" points="0.5,0 0.5,-52 64.5,-52 64.5,0 0.5,0"/>
</a>
</g>
</g>
<!-- Node2 -->
<g id="Node000002" class="node">
<title>Node2</title>
<g id="a_Node000002"><a xlink:title=" ">
<polygon fill="white" stroke="none" points="65,-140 0,-140 0,-88 65,-88 65,-140"/>
<text text-anchor="start" x="4.75" y="-126.5" font-family="Helvetica,sans-Serif" font-size="10.00">NamedTuple</text>
<text text-anchor="start" x="31" y="-110.5" font-family="Helvetica,sans-Serif" font-size="10.00"> </text>
<text text-anchor="start" x="31" y="-94.5" font-family="Helvetica,sans-Serif" font-size="10.00"> </text>
<polygon fill="#666666" stroke="#666666" points="0,-122 0,-122 65,-122 65,-122 0,-122"/>
<polygon fill="#666666" stroke="#666666" points="0,-106 0,-106 65,-106 65,-106 0,-106"/>
<polygon fill="none" stroke="#666666" points="0,-88 0,-140 65,-140 65,-88 0,-88"/>
</a>
</g>
</g>
<!-- Node2&#45;&gt;Node1 -->
<g id="edge1_Node000001_Node000002" class="edge">
<title>Node2&#45;&gt;Node1</title>
<g id="a_edge1_Node000001_Node000002"><a xlink:title=" ">
<path fill="none" stroke="#63b8ff" d="M32.5,-76.66C32.5,-68.29 32.5,-59.57 32.5,-51.82"/>
<polygon fill="none" stroke="#63b8ff" points="29,-76.61 32.5,-86.61 36,-76.61 29,-76.61"/>
</a>
</g>
</g>
</g>
</svg>
</svg>

<style type='text/css'>
<![CDATA[
[data-mouse-over-selected='false'] { opacity: 0.7; }
[data-mouse-over-selected='true']  { opacity: 1.0; }
]]>
</style>
<script type="application/ecmascript"><![CDATA[
document.addEventListener('DOMContentLoaded', (event) => {
  highlightEdges();
  highlightAdjacentNodes();
});
]]></script>
</svg>
