<?xml version="1.0" encoding="UTF-8" standalone="no"?>
<!DOCTYPE svg PUBLIC "-//W3C//DTD SVG 1.1//EN"
 "http://www.w3.org/Graphics/SVG/1.1/DTD/svg11.dtd">
<!-- Generated by graphviz version 12.1.2 (20240928.0832)
 -->
<!-- Title: ConfigParser Pages: 1 -->
<svg width="114pt" height="92pt"
 viewBox="0.00 0.00 114.00 92.00" xmlns="http://www.w3.org/2000/svg" xmlns:xlink="http://www.w3.org/1999/xlink">
<g id="graph0" class="graph" transform="scale(1 1) rotate(0) translate(4 88)">
<title>ConfigParser</title>
<!-- Node1 -->
<g id="Node000001" class="node">
<title>Node1</title>
<g id="a_Node000001"><a xlink:title="This class should be used to parse and store a doxygen configuration file.">
<polygon fill="#999999" stroke="none" points="106,-84 0,-84 0,0 106,0 106,-84"/>
<text text-anchor="start" x="24.5" y="-70.5" font-family="Helvetica,sans-Serif" font-size="10.00">ConfigParser</text>
<text text-anchor="start" x="51.5" y="-54.5" font-family="Helvetica,sans-Serif" font-size="10.00"> </text>
<text text-anchor="start" x="4" y="-38.5" font-family="Helvetica,sans-Serif" font-size="10.00">+</text>
<text text-anchor="start" x="14" y="-38.5" font-family="Helvetica,sans-Serif" font-size="10.00">__init__()</text>
<text text-anchor="start" x="4" y="-22.5" font-family="Helvetica,sans-Serif" font-size="10.00">+</text>
<text text-anchor="start" x="14" y="-22.5" font-family="Helvetica,sans-Serif" font-size="10.00">load_configuration()</text>
<text text-anchor="start" x="4" y="-6.5" font-family="Helvetica,sans-Serif" font-size="10.00">+</text>
<text text-anchor="start" x="14" y="-6.5" font-family="Helvetica,sans-Serif" font-size="10.00">store_configuration()</text>
<polygon fill="#666666" stroke="#666666" points="0,-66 0,-66 106,-66 106,-66 0,-66"/>
<polygon fill="#666666" stroke="#666666" points="0,-50 0,-50 106,-50 106,-50 0,-50"/>
<polygon fill="none" stroke="#666666" points="0,0 0,-84 106,-84 106,0 0,0"/>
</a>
</g>
</g>
</g>
</svg>
