<?xml version="1.0" encoding="UTF-8" standalone="no"?>
<!DOCTYPE svg PUBLIC "-//W3C//DTD SVG 1.1//EN"
 "http://www.w3.org/Graphics/SVG/1.1/DTD/svg11.dtd">
<!-- Generated by graphviz version 12.1.2 (20240928.0832)
 -->
<!-- Title: ParseException Pages: 1 -->
<svg width="87pt" height="148pt"
 viewBox="0.00 0.00 87.00 148.00" xmlns="http://www.w3.org/2000/svg" xmlns:xlink="http://www.w3.org/1999/xlink">
<g id="graph0" class="graph" transform="scale(1 1) rotate(0) translate(4 144)">
<title>ParseException</title>
<!-- Node1 -->
<g id="Node000001" class="node">
<title>Node1</title>
<g id="a_Node000001"><a xlink:title="Exception throw when error during parsing doxygen config.">
<polygon fill="#999999" stroke="none" points="79,-52 0,-52 0,0 79,0 79,-52"/>
<text text-anchor="start" x="5" y="-38.5" font-family="Helvetica,sans-Serif" font-size="10.00">ParseException</text>
<text text-anchor="start" x="38" y="-22.5" font-family="Helvetica,sans-Serif" font-size="10.00"> </text>
<text text-anchor="start" x="38" y="-6.5" font-family="Helvetica,sans-Serif" font-size="10.00"> </text>
<polygon fill="#666666" stroke="#666666" points="0,-34 0,-34 79,-34 79,-34 0,-34"/>
<polygon fill="#666666" stroke="#666666" points="0,-18 0,-18 79,-18 79,-18 0,-18"/>
<polygon fill="none" stroke="#666666" points="0,0 0,-52 79,-52 79,0 0,0"/>
</a>
</g>
</g>
<!-- Node2 -->
<g id="Node000002" class="node">
<title>Node2</title>
<g id="a_Node000002"><a xlink:title=" ">
<polygon fill="white" stroke="none" points="66,-140 13,-140 13,-88 66,-88 66,-140"/>
<text text-anchor="start" x="17.75" y="-126.5" font-family="Helvetica,sans-Serif" font-size="10.00">Exception</text>
<text text-anchor="start" x="38" y="-110.5" font-family="Helvetica,sans-Serif" font-size="10.00"> </text>
<text text-anchor="start" x="38" y="-94.5" font-family="Helvetica,sans-Serif" font-size="10.00"> </text>
<polygon fill="#666666" stroke="#666666" points="13,-122 13,-122 66,-122 66,-122 13,-122"/>
<polygon fill="#666666" stroke="#666666" points="13,-106 13,-106 66,-106 66,-106 13,-106"/>
<polygon fill="none" stroke="#666666" points="13,-88 13,-140 66,-140 66,-88 13,-88"/>
</a>
</g>
</g>
<!-- Node2&#45;&gt;Node1 -->
<g id="edge1_Node000001_Node000002" class="edge">
<title>Node2&#45;&gt;Node1</title>
<g id="a_edge1_Node000001_Node000002"><a xlink:title=" ">
<path fill="none" stroke="#63b8ff" d="M39.5,-76.66C39.5,-68.29 39.5,-59.57 39.5,-51.82"/>
<polygon fill="none" stroke="#63b8ff" points="36,-76.61 39.5,-86.61 43,-76.61 36,-76.61"/>
</a>
</g>
</g>
</g>
</svg>
